<svg height="457.14286pt" viewBox="0 0 457.14286 457.14286" width="457.14286pt" xmlns="http://www.w3.org/2000/svg"><path d="m434.980469 194.710938c-6.472657-5.785157-13.800781-12.347657-15.175781-17.410157-1.464844-5.492187 1.550781-14.730469 4.472656-23.664062 4.4375-13.585938 9.027344-27.632813 2.292968-39.347657-6.882812-11.945312-22.222656-15.15625-35.757812-17.984374-8.644531-1.808594-18.4375-3.859376-22.269531-7.65625-3.847657-3.878907-5.890625-13.675782-7.703125-22.3125-2.832032-13.535157-6.046875-28.878907-18-35.773438-11.679688-6.722656-25.742188-2.128906-39.332032 2.304688-8.925781 2.917968-18.167968 5.933593-23.640624 4.476562-5.089844-1.375-11.644532-8.710938-17.4375-15.183594-9.285157-10.386718-19.8125-22.160156-33.859376-22.160156-14.042968 0-24.570312 11.773438-33.855468 22.160156-5.796875 6.472656-12.347656 13.808594-17.410156 15.175782-5.511719 1.488281-14.742188-1.550782-23.671876-4.46875-13.597656-4.441407-27.640624-9.023438-39.339843-2.296876-11.945313 6.886719-15.160157 22.230469-17.988281 35.765626-1.8125 8.636718-3.859376 18.433593-7.652344 22.257812-3.882813 3.851562-13.679688 5.902344-22.320313 7.710938-13.539062 2.828124-28.875 6.039062-35.769531 17.996093-6.722656 11.703125-2.132812 25.75 2.304688 39.335938 2.917968 8.933593 5.9375 18.171875 4.472656 23.636719-1.375 5.089843-8.707032 11.652343-15.179688 17.4375-10.382812 9.289062-22.160156 19.820312-22.160156 33.859374 0 14.042969 11.777344 24.574219 22.160156 33.863282 6.472656 5.785156 13.804688 12.347656 15.179688 17.410156 1.464844 5.492188-1.554688 14.726562-4.472656 23.660156-4.4375 13.589844-9.027344 27.632813-2.296876 39.347656 6.886719 11.949219 22.222657 15.15625 35.761719 17.988282 8.640625 1.808594 18.4375 3.855468 22.265625 7.65625 3.847656 3.878906 5.894532 13.671875 7.707032 22.3125 2.828124 13.535156 6.042968 28.878906 18 35.773437 11.695312 6.730469 25.75 2.140625 39.328124-2.304687 8.929688-2.921875 18.144532-5.960938 23.644532-4.476563 5.089844 1.375 11.640625 8.707031 17.4375 15.179688 9.285156 10.390625 19.8125 22.164062 33.855468 22.164062 14.046876 0 24.574219-11.773437 33.859376-22.164062 5.792968-6.472657 12.347656-13.804688 17.410156-15.171875 5.515625-1.484375 14.742187 1.554687 23.667968 4.46875 13.597657 4.441406 27.636719 9.03125 39.339844 2.292968 11.945313-6.882812 15.160156-22.226562 17.992188-35.761718 1.8125-8.640625 3.855468-18.433594 7.652344-22.257813 3.882812-3.855469 13.675781-5.902343 22.320312-7.710937 13.535156-2.832032 28.875-6.039063 35.769531-17.996094 6.722657-11.707031 2.132813-25.75-2.304687-39.339844-2.921875-8.933594-5.9375-18.167968-4.472656-23.632812 1.375-5.089844 8.703124-11.652344 15.175781-17.4375 10.386719-9.289063 22.164062-19.820313 22.164062-33.863282 0-14.039062-11.777343-24.570312-22.164062-33.859374zm-12.1875 54.09375c-8.773438 7.847656-17.855469 15.96875-20.648438 26.324218-2.867187 10.734375 1.007813 22.589844 4.75 34.054688 3.050781 9.328125 6.5 19.902344 3.835938 24.535156-2.800781 4.855469-13.882813 7.175781-23.660157 9.222656-11.667968 2.4375-23.730468 4.964844-31.507812 12.679688-7.652344 7.714844-10.179688 19.777344-12.617188 31.441406-2.050781 9.78125-4.363281 20.871094-9.214843 23.660156-4.625 2.679688-15.195313-.777344-24.542969-3.824218-11.464844-3.753907-23.332031-7.652344-34.089844-4.75-10.328125 2.789062-18.445312 11.863281-26.292968 20.640624-6.734376 7.53125-14.367188 16.066407-20.234376 16.066407-5.863281 0-13.5-8.535157-20.230468-16.066407-7.847656-8.777343-15.964844-17.851562-26.320313-20.652343-2.609375-.695313-5.277343-.988281-7.992187-.988281-8.472656 0-17.382813 2.910156-26.070313 5.75-9.332031 3.039062-19.886719 6.488281-24.539062 3.832031-4.855469-2.796875-7.167969-13.886719-9.222657-23.667969-2.4375-11.664062-4.964843-23.726562-12.667968-31.496094-7.722656-7.660156-19.785156-10.1875-31.457032-12.625-9.777343-2.046875-20.855468-4.367187-23.652343-9.214844-2.667969-4.640624.777343-15.214843 3.832031-24.542968 3.742188-11.464844 7.617188-23.320313 4.75-34.082032-2.792969-10.328124-11.875-18.449218-20.652344-26.296874-7.527344-6.738282-16.0625-14.371094-16.0625-20.234376 0-5.859374 8.535156-13.496093 16.0625-20.230468 8.777344-7.847656 17.859375-15.96875 20.652344-26.328125 2.867188-10.730469-1.007812-22.585938-4.75-34.050781-3.054688-9.332032-6.5-19.902344-3.839844-24.535157 2.804688-4.859375 13.882813-7.175781 23.660156-9.226562 11.671876-2.4375 23.734376-4.960938 31.511719-12.675781 7.648438-7.714844 10.175781-19.777344 12.613281-31.441407 2.054688-9.78125 4.367188-20.871093 9.214844-23.664062 4.652344-2.660157 15.207032.78125 24.546875 3.828125 11.460938 3.75 23.3125 7.625 34.085938 4.75 10.332031-2.789063 18.449219-11.867188 26.296875-20.644532 6.730468-7.53125 14.367187-16.066406 20.230468-16.066406 5.867188 0 13.5 8.535156 20.234376 16.066406 7.847656 8.777344 15.964843 17.855469 26.320312 20.652344 10.75 2.875 22.597656-1.007812 34.0625-4.757812 9.332031-3.046875 19.894531-6.503906 24.535156-3.835938 4.859375 2.800782 7.171875 13.890625 9.222656 23.671875 2.4375 11.664063 4.964844 23.726563 12.671876 31.492188 7.722656 7.664062 19.785156 10.1875 31.453124 12.625 9.777344 2.050781 20.859376 4.367187 23.652344 9.214843 2.671875 4.644532-.777344 15.214844-3.828125 24.546876-3.742187 11.464843-7.617187 23.320312-4.75 34.078124 2.792969 10.332032 11.875 18.453126 20.648438 26.300782 7.527343 6.734375 16.0625 14.371094 16.0625 20.230468 0 5.863282-8.535157 13.496094-16.0625 20.234376zm0 0"/><path d="m228.570312 78.476562c-82.792968 0-150.160156 67.304688-150.160156 150.03125 0 82.796876 67.367188 150.15625 150.160156 150.15625 82.796876 0 150.160157-67.359374 150.160157-150.15625 0-82.726562-67.363281-150.03125-150.160157-150.03125zm0 281.902344c-72.714843 0-131.875-59.15625-131.875-131.871094 0-72.640624 59.160157-131.746093 131.875-131.746093 72.714844 0 131.875 59.105469 131.875 131.746093 0 72.714844-59.160156 131.871094-131.875 131.871094zm0 0"/><path d="m152.957031 224.140625c-9.257812-3.585937-13.34375-6.675781-13.34375-12.945313 0-4.578124 3.484375-10.054687 12.644531-10.054687 6.074219 0 10.558594 1.988281 12.746094 3.183594l2.390625-7.070313c-2.980469-1.6875-7.96875-3.28125-14.835937-3.28125-13.042969 0-21.703125 7.765625-21.703125 18.21875 0 9.457032 6.769531 15.132813 17.722656 19.015625 9.054687 3.488281 12.648437 7.070313 12.648437 13.339844 0 6.773437-5.179687 11.453125-14.042968 11.453125-5.972656 0-11.648438-1.992188-15.53125-4.382812l-2.191406 7.269531c3.585937 2.390625 10.65625 4.285156 17.125 4.285156 15.832031 0 23.5-8.964844 23.5-19.320313 0-9.855468-5.777344-15.332031-17.128907-19.710937zm0 0"/><path d="m199.679688 195.066406-22.800782 67.105469h8.960938l6.972656-21.105469h23.792969l7.175781 21.105469h9.257812l-22.902343-67.105469zm-5.078126 39.226563 6.574219-19.414063c1.289063-4.082031 2.386719-8.164062 3.382813-12.148437h.203125c.996093 3.886719 1.984375 7.871093 3.484375 12.246093l6.566406 19.316407zm0 0"/><path d="m251.585938 195.066406h-8.664063v67.105469h37.339844v-7.265625h-28.675781zm0 0"/><path d="m326.1875 202.335938v-7.269532h-36.246094v67.105469h37.738282v-7.265625h-29.070313v-24.195312h26.085937v-7.167969h-26.085937v-21.207031zm0 0"/></svg>