<svg id="Capa_1" enable-background="new 0 0 512.798 512.798" height="512" viewBox="0 0 512.798 512.798" width="512" xmlns="http://www.w3.org/2000/svg"><g><g><path d="m282.91 347.337-9.65-9.201c-1.427-1.361-2.025-3.376-1.57-5.295l3.073-12.974c.552-2.332-.462-4.736-2.493-6.009-15.046-9.429-45.441-15.837-71.232-11.858.32-1.175.616-2.362.859-3.574 5.637-28.142-4.549-64.69-16.853-80.86-1.451-1.907-3.938-2.7-6.21-1.939l-12.643 4.235c-1.869.626-3.931.213-5.415-1.085l-10.037-8.777c-1.804-1.578-4.404-1.804-6.478-.603-17.583 10.184-41.06 39.988-46.697 68.131-.243 1.212-.426 2.421-.584 3.629-22.269-13.606-52.787-19.399-70.304-16.493-2.364.392-4.227 2.22-4.615 4.585l-2.161 13.157c-.32 1.946-1.648 3.575-3.488 4.281l-12.45 4.774c-2.238.858-3.652 3.051-3.559 5.446.791 20.304 16.178 54.984 38.428 73.114 2.253 1.836 4.615 3.448 7.054 4.857-.44.306-.883.603-1.317.924-23.072 17.073-40.059 50.998-41.797 71.243-.205 2.388 1.106 4.645 3.301 5.606l12.213 5.349c1.806.791 3.057 2.481 3.285 4.439l1.545 13.244c.278 2.38 2.053 4.293 4.396 4.796 19.868 4.257 57.277-2.07 80.349-19.143 3.301-2.443 6.223-5.203 8.786-8.194 1.212 3.747 2.846 7.421 4.952 10.946 14.716 24.642 46.802 44.889 66.777 48.613 2.356.439 4.731-.643 5.904-2.732l6.527-11.627c.965-1.719 2.77-2.797 4.741-2.831l13.331-.233c2.396-.042 4.475-1.62 5.205-3.902 6.194-19.352 3.584-57.203-11.132-81.844-.277-.463-.571-.908-.859-1.36 2.793-.361 5.593-.939 8.38-1.765 27.517-8.161 55.074-34.24 63.624-52.672 1.009-2.175.548-4.744-1.186-6.398z" fill="#ffa799"/><path d="m185.039 217.564c-1.45-1.909-3.929-2.701-6.21-1.936l-10.664 3.576c9.732 20.949 16.954 58.347 12.22 81.978-.002.012-.005.024-.007.036-.344 1.708 1.07 3.247 2.796 3.009 5.829-.805 12.185-1.51 17.859-2.228.325-1.167.615-2.361.859-3.575 5.637-28.144-4.545-64.69-16.853-80.86zm97.866 129.77-9.642-9.201c-1.429-1.355-2.033-3.37-1.576-5.295l3.076-12.966c.549-2.334-.465-4.746-2.491-6.018-6.151-3.859-14.858-7.202-24.776-9.535.732.361 1.447.758 2.124 1.189 2.036 1.273 3.051 3.676 2.493 6.008l-3.066 12.968c-.457 1.925.138 3.937 1.565 5.303l9.654 9.193c1.734 1.661 2.197 4.228 1.183 6.397-8.55 18.437-37.951 43.477-65.468 51.639-.744.22-1.687.448-2.67.664-2.695.592-3.948 3.71-2.402 5.995 15.389 24.229 19.825 53.544 13.629 72.891-.733 2.287-2.811 3.866-5.201 3.906l-13.333.231c-1.972.033-3.777 1.117-4.743 2.838l-9.621 18.077c-1.058 1.875-3.085 2.946-5.207 2.816 7.909 4.181 15.546 7.075 21.946 8.265 2.355.441 4.731-.641 5.902-2.728l6.525-11.634c.964-1.711 2.769-2.795 4.741-2.828l13.333-.231c2.4-.038 4.478-1.618 5.211-3.904 6.187-19.348 3.576-57.197-11.138-81.842-.274-.462-.571-.909-.857-1.363 2.79-.358 5.594-.936 8.376-1.764 27.517-8.162 55.078-34.235 63.628-52.672 1.003-2.171.542-4.748-1.195-6.399z" fill="#fe8f83"/><g><g><g><path d="m139.941 344.61c-.503 0-1.013-.049-1.524-.152-4.182-.838-6.893-4.907-6.056-9.089l7.523-37.557c.838-4.182 4.912-6.893 9.088-6.056 4.182.838 6.893 4.907 6.056 9.089l-7.523 37.557c-.735 3.67-3.959 6.208-7.564 6.208z" fill="#fed402"/></g><g><g><path d="m121.839 434.98c-.503 0-1.013-.049-1.525-.152-4.181-.838-6.893-4.907-6.055-9.089l7.524-37.556c.838-4.182 4.903-6.894 9.089-6.056 4.181.838 6.893 4.907 6.055 9.089l-7.524 37.556c-.735 3.671-3.959 6.208-7.564 6.208z" fill="#fed402"/></g></g></g><g><g><path d="m119.718 348.603c-2.497 0-4.946-1.209-6.434-3.442l-21.237-31.876c-2.365-3.55-1.405-8.344 2.145-10.709 3.551-2.365 8.345-1.404 10.708 2.145l21.237 31.876c2.365 3.55 1.405 8.344-2.145 10.709-1.316.878-2.803 1.297-4.274 1.297z" fill="#fed402"/></g><g><g><path d="m170.82 425.305c-2.497 0-4.946-1.208-6.434-3.442l-21.238-31.876c-2.365-3.55-1.405-8.344 2.145-10.709 3.551-2.365 8.345-1.404 10.708 2.145l21.238 31.876c2.365 3.55 1.405 8.344-2.145 10.709-1.316.877-2.803 1.297-4.274 1.297z" fill="#fed402"/></g></g></g><g><g><path d="m108.245 365.727c-.503 0-1.013-.049-1.524-.152l-37.557-7.523c-4.182-.838-6.893-4.907-6.056-9.089.838-4.182 4.906-6.891 9.088-6.056l37.557 7.523c4.182.838 6.893 4.907 6.056 9.089-.736 3.671-3.959 6.208-7.564 6.208z" fill="#fed402"/></g><g><g><path d="m198.615 383.829c-.503 0-1.013-.049-1.524-.152l-37.556-7.523c-4.182-.838-6.893-4.907-6.056-9.089.838-4.181 4.905-6.894 9.088-6.056l37.556 7.523c4.182.838 6.893 4.907 6.056 9.089-.735 3.67-3.959 6.208-7.564 6.208z" fill="#fed402"/></g></g></g><g><g><path d="m80.361 407.185c-2.497 0-4.946-1.209-6.434-3.442-2.365-3.549-1.405-8.344 2.145-10.709l31.876-21.237c3.551-2.365 8.345-1.404 10.708 2.145 2.365 3.549 1.405 8.344-2.145 10.709l-31.876 21.237c-1.315.877-2.803 1.297-4.274 1.297z" fill="#fed402"/></g><g><g><path d="m157.064 356.084c-2.497 0-4.946-1.208-6.434-3.442-2.365-3.55-1.405-8.344 2.145-10.709l31.875-21.237c3.551-2.365 8.345-1.404 10.708 2.145 2.365 3.55 1.405 8.344-2.145 10.709l-31.875 21.237c-1.316.877-2.803 1.297-4.274 1.297z" fill="#fed402"/></g></g></g></g><circle cx="134.644" cy="363.292" fill="#fee97d" r="35.909"/><path d="m169.851 370.343c-3.896 19.451-22.813 32.054-42.264 28.158-10.876-2.178-19.608-9.059-24.517-18.096 2.821 1.42 5.875 2.49 9.115 3.139 19.441 3.894 38.37-8.717 42.264-28.158 1.718-8.575.226-17.04-3.64-24.168 14.076 7.087 22.287 22.924 19.042 39.125z" fill="#fedf30"/></g><g><path d="m499.64 72.044-12.768-3.841c-1.888-.568-3.333-2.095-3.795-4.012l-3.127-12.961c-.562-2.33-2.555-4.015-4.941-4.232-17.683-1.604-47.691 6.428-68.893 21.642-.246-1.193-.519-2.385-.85-3.576-7.701-27.649-33.316-55.637-51.603-64.494-2.157-1.045-4.733-.627-6.415 1.079l-9.361 9.495c-1.384 1.404-3.409 1.968-5.32 1.482l-12.921-3.289c-2.322-.591-4.744.383-6.05 2.392-11.075 17.035-18.534 54.236-10.832 81.885.332 1.191.715 2.352 1.121 3.5-26.014-2.063-55.853 6.574-70.161 17.088-1.931 1.419-2.765 3.892-2.042 6.177l4.023 12.712c.595 1.88.148 3.934-1.175 5.396l-8.944 9.889c-1.608 1.777-1.877 4.373-.711 6.467 9.889 17.75 39.298 41.722 67.342 47.828 2.84.618 5.676.988 8.488 1.141-.254.472-.515.937-.757 1.42-12.855 25.662-12.662 63.602-5.055 82.443.897 2.222 3.087 3.642 5.479 3.507l13.312-.753c1.968-.111 3.848.83 4.938 2.473l7.368 11.113c1.324 1.997 3.773 2.901 6.09 2.289 19.645-5.19 50.147-27.753 63.003-53.414 1.839-3.671 3.197-7.455 4.129-11.282 2.776 2.794 5.895 5.331 9.367 7.523 24.27 15.321 62.044 18.867 81.544 13.154 2.3-.674 3.929-2.713 4.03-5.107l.562-13.322c.083-1.97 1.205-3.748 2.948-4.67l11.785-6.237c2.118-1.121 3.258-3.469 2.877-5.835-3.229-20.061-22.676-52.638-46.946-67.959-.456-.288-.92-.552-1.382-.824 2.328-1.585 4.564-3.367 6.675-5.365 20.85-19.725 33.632-55.447 32.921-75.754-.085-2.395-1.658-4.478-3.953-5.168z" fill="#ffa799"/><path d="m353.657.57c-2.157-1.047-4.726-.632-6.414 1.082l-7.893 8.012c18.155 14.282 41.511 44.37 47.977 67.586.003.012.007.024.01.036.466 1.679 2.423 2.412 3.855 1.419 4.835-3.354 10.184-6.858 14.92-10.065-.238-1.188-.519-2.384-.851-3.577-7.703-27.65-33.313-55.638-51.604-64.493zm145.978 71.473-12.761-3.845c-1.887-.563-3.338-2.086-3.801-4.009l-3.121-12.955c-.566-2.33-2.561-4.023-4.943-4.24-7.231-.66-16.509.297-26.41 2.703.816-.01 1.633.022 2.432.1 2.392.215 4.384 1.898 4.94 4.231l3.131 12.953c.463 1.923 1.904 3.449 3.794 4.022l12.768 3.833c2.298.697 3.872 2.777 3.948 5.17.714 20.31-14.183 55.941-35.032 75.666-.564.533-1.302 1.163-2.082 1.8-2.136 1.747-1.844 5.094.569 6.433 24.684 14.649 41.899 38.788 45.123 58.845.381 2.371-.758 4.719-2.872 5.837l-11.787 6.237c-1.744.921-2.864 2.705-2.947 4.676l-.405 20.474c-.095 2.151-1.419 4.022-3.37 4.866 8.944.151 17.065-.721 23.311-2.555 2.3-.672 3.929-2.711 4.03-5.102l.558-13.327c.086-1.962 1.206-3.745 2.949-4.666l11.787-6.237c2.124-1.12 3.262-3.468 2.882-5.839-3.233-20.054-22.68-52.63-46.95-67.955-.453-.288-.921-.552-1.381-.828 2.327-1.581 4.566-3.365 6.673-5.361 20.85-19.725 33.638-55.445 32.924-75.756-.085-2.394-1.662-4.484-3.957-5.171z" fill="#fe8f83"/><g><g><g><path d="m367.392 135.115c-3.381 0-6.484-2.237-7.435-5.653l-10.277-36.898c-1.144-4.109 1.258-8.367 5.367-9.512s8.367 1.259 9.512 5.368l10.277 36.898c1.144 4.109-1.258 8.367-5.367 9.512-.693.193-1.391.285-2.077.285z" fill="#fed402"/></g><g><g><path d="m392.122 223.901c-3.381 0-6.484-2.237-7.435-5.653l-10.277-36.898c-1.144-4.109 1.258-8.367 5.367-9.512 4.109-1.144 8.367 1.259 9.512 5.368l10.277 36.898c1.144 4.109-1.258 8.367-5.367 9.512-.693.193-1.391.285-2.077.285z" fill="#fed402"/></g></g></g><g><g><path d="m351.161 147.823c-1.286 0-2.588-.322-3.788-.999l-33.358-18.824c-3.715-2.096-5.027-6.807-2.931-10.521 2.098-3.715 6.808-5.025 10.521-2.93l33.358 18.824c3.715 2.096 5.027 6.807 2.931 10.521-1.42 2.515-4.038 3.929-6.733 3.929z" fill="#fed402"/></g><g><g><path d="m431.429 193.118c-1.286 0-2.588-.321-3.788-.999l-33.359-18.824c-3.715-2.096-5.027-6.807-2.931-10.521 2.098-3.715 6.807-5.025 10.521-2.93l33.359 18.824c3.715 2.096 5.027 6.806 2.931 10.521-1.42 2.515-4.037 3.929-6.733 3.929z" fill="#fed402"/></g></g></g><g><g><path d="m311.776 178.562c-3.381 0-6.484-2.237-7.435-5.653-1.144-4.109 1.258-8.367 5.367-9.512l36.898-10.277c4.11-1.146 8.367 1.259 9.512 5.368s-1.258 8.367-5.367 9.512l-36.898 10.277c-.693.193-1.391.285-2.077.285z" fill="#fed402"/></g><g><g><path d="m400.563 153.832c-3.381 0-6.484-2.237-7.435-5.653-1.144-4.109 1.258-8.367 5.367-9.512l36.898-10.277c4.11-1.144 8.367 1.259 9.512 5.368s-1.258 8.367-5.367 9.512l-36.898 10.277c-.693.193-1.391.285-2.077.285z" fill="#fed402"/></g></g></g><g><g><path d="m342.557 217.871c-1.286 0-2.588-.321-3.788-.999-3.715-2.096-5.027-6.806-2.931-10.521l18.823-33.358c2.098-3.716 6.807-5.027 10.521-2.931 3.715 2.096 5.027 6.806 2.931 10.521l-18.823 33.358c-1.42 2.516-4.037 3.93-6.733 3.93z" fill="#fed402"/></g><g><g><path d="m387.852 137.603c-1.286 0-2.588-.321-3.788-.999-3.715-2.096-5.027-6.806-2.931-10.521l18.823-33.358c2.097-3.715 6.807-5.027 10.521-2.93 3.715 2.096 5.027 6.806 2.931 10.521l-18.823 33.358c-1.42 2.515-4.037 3.929-6.733 3.929z" fill="#fed402"/></g></g></g></g><circle cx="374.623" cy="153.334" fill="#fee97d" r="35.909"/><path d="m409.212 143.698c5.323 19.11-5.849 38.906-24.958 44.229-10.685 2.976-21.585.789-30.051-5.05 3.158-.009 6.366-.436 9.549-1.323 19.1-5.32 30.278-25.129 24.958-44.229-2.347-8.425-7.505-15.299-14.178-19.908 15.761-.047 30.247 10.365 34.68 26.281z" fill="#fedf30"/></g></g></svg>