<?xml version="1.0" encoding="iso-8859-1"?>
<!-- Generator: Adobe Illustrator 19.0.0, SVG Export Plug-In . SVG Version: 6.00 Build 0)  -->
<svg version="1.1" id="Capa_1" xmlns="http://www.w3.org/2000/svg" xmlns:xlink="http://www.w3.org/1999/xlink" x="0px" y="0px"
	 viewBox="0 0 472.615 472.615" style="enable-background:new 0 0 472.615 472.615;" xml:space="preserve">
<g>
	<g>
		<path d="M402.707,88.615h-332.8l-37.415,384h407.631L402.707,88.615z M87.63,108.308h297.354l33.477,344.615H54.153L87.63,108.308
			z"/>
	</g>
</g>
<g>
	<g>
		<path d="M236.307,0c-49.231,0-88.615,39.385-88.615,88.615v88.615h19.692V88.615c0-38.4,30.523-68.923,68.923-68.923
			c38.4,0,68.923,30.523,68.923,68.923v88.615h19.692V88.615C324.922,39.385,285.538,0,236.307,0z"/>
	</g>
</g>
<g>
	<g>
		<rect x="281.599" y="167.38" width="57.11" height="19.692"/>
	</g>
</g>
<g>
	<g>
		<rect x="133.909" y="167.38" width="57.11" height="19.692"/>
	</g>
</g>
<g>
	<g>
		<path d="M276.676,236.308c-15.754,0-29.538,5.908-40.369,15.754c-10.831-9.846-25.6-15.754-40.369-15.754
			c-31.508,0-58.092,25.6-58.092,57.108c0,63.015,89.6,117.169,93.538,119.139l4.923,2.954l4.923-2.954
			c3.938-1.969,93.538-52.185,93.538-119.139C334.768,261.908,309.168,236.308,276.676,236.308z M236.307,392.861
			c-25.6-16.739-78.769-59.077-78.769-99.446c0-20.677,16.738-37.415,38.4-37.415c12.8,0,25.6,5.908,33.477,15.754l7.877,10.831
			l7.877-10.831c6.892-9.846,18.708-15.754,31.508-15.754c20.677,0,38.4,16.738,38.4,37.415
			C315.076,341.661,254.03,382.031,236.307,392.861z"/>
	</g>
</g>
<g>
</g>
<g>
</g>
<g>
</g>
<g>
</g>
<g>
</g>
<g>
</g>
<g>
</g>
<g>
</g>
<g>
</g>
<g>
</g>
<g>
</g>
<g>
</g>
<g>
</g>
<g>
</g>
<g>
</g>
</svg>
